<!--?xml version="1.0" encoding="UTF-8"?-->
<svg width="100%" height="100%" viewBox="0 0 665 163" version="1.1" xmlns="http://www.w3.org/2000/svg" xmlns:xlink="http://www.w3.org/1999/xlink">
<style>@-webkit-keyframes animate-svg-stroke-1{0%{stroke-dashoffset:392.8497619628906px;stroke-dasharray:392.8497619628906px}100%{stroke-dashoffset:0;stroke-dasharray:392.8497619628906px}}@keyframes animate-svg-stroke-1{0%{stroke-dashoffset:392.8497619628906px;stroke-dasharray:392.8497619628906px}100%{stroke-dashoffset:0;stroke-dasharray:392.8497619628906px}}@-webkit-keyframes animate-svg-fill-1{0%{fill:transparent}100%{fill:rgb(255,255,255)}}@keyframes animate-svg-fill-1{0%{fill:transparent}100%{fill:rgb(255,255,255)}}.svg-elem-1{-webkit-animation:animate-svg-stroke-1 1s cubic-bezier(0.47,0,0.745,0.715) 0s both,animate-svg-fill-1 0.7s cubic-bezier(0.47,0,0.745,0.715) 0.8s both;animation:animate-svg-stroke-1 1s cubic-bezier(0.47,0,0.745,0.715) 0s both,animate-svg-fill-1 0.7s cubic-bezier(0.47,0,0.745,0.715) 0.8s both}@-webkit-keyframes animate-svg-stroke-2{0%{stroke-dashoffset:354.08929443359375px;stroke-dasharray:354.08929443359375px}100%{stroke-dashoffset:0;stroke-dasharray:354.08929443359375px}}@keyframes animate-svg-stroke-2{0%{stroke-dashoffset:354.08929443359375px;stroke-dasharray:354.08929443359375px}100%{stroke-dashoffset:0;stroke-dasharray:354.08929443359375px}}@-webkit-keyframes animate-svg-fill-2{0%{fill:transparent}100%{fill:rgb(255,255,255)}}@keyframes animate-svg-fill-2{0%{fill:transparent}100%{fill:rgb(255,255,255)}}.svg-elem-2{-webkit-animation:animate-svg-stroke-2 1s cubic-bezier(0.47,0,0.745,0.715) 0.12s both,animate-svg-fill-2 0.7s cubic-bezier(0.47,0,0.745,0.715) 0.9s both;animation:animate-svg-stroke-2 1s cubic-bezier(0.47,0,0.745,0.715) 0.12s both,animate-svg-fill-2 0.7s cubic-bezier(0.47,0,0.745,0.715) 0.9s both}@-webkit-keyframes animate-svg-stroke-3{0%{stroke-dashoffset:412.3407897949219px;stroke-dasharray:412.3407897949219px}100%{stroke-dashoffset:0;stroke-dasharray:412.3407897949219px}}@keyframes animate-svg-stroke-3{0%{stroke-dashoffset:412.3407897949219px;stroke-dasharray:412.3407897949219px}100%{stroke-dashoffset:0;stroke-dasharray:412.3407897949219px}}@-webkit-keyframes animate-svg-fill-3{0%{fill:transparent}100%{fill:rgb(255,255,255)}}@keyframes animate-svg-fill-3{0%{fill:transparent}100%{fill:rgb(255,255,255)}}.svg-elem-3{-webkit-animation:animate-svg-stroke-3 1s cubic-bezier(0.47,0,0.745,0.715) 0.24s both,animate-svg-fill-3 0.7s cubic-bezier(0.47,0,0.745,0.715) 1s both;animation:animate-svg-stroke-3 1s cubic-bezier(0.47,0,0.745,0.715) 0.24s both,animate-svg-fill-3 0.7s cubic-bezier(0.47,0,0.745,0.715) 1s both}@-webkit-keyframes animate-svg-stroke-4{0%{stroke-dashoffset:434.61102294921875px;stroke-dasharray:434.61102294921875px}100%{stroke-dashoffset:0;stroke-dasharray:434.61102294921875px}}@keyframes animate-svg-stroke-4{0%{stroke-dashoffset:434.61102294921875px;stroke-dasharray:434.61102294921875px}100%{stroke-dashoffset:0;stroke-dasharray:434.61102294921875px}}@-webkit-keyframes animate-svg-fill-4{0%{fill:transparent}100%{fill:rgb(255,255,255)}}@keyframes animate-svg-fill-4{0%{fill:transparent}100%{fill:rgb(255,255,255)}}.svg-elem-4{-webkit-animation:animate-svg-stroke-4 1s cubic-bezier(0.47,0,0.745,0.715) 0.36s both,animate-svg-fill-4 0.7s cubic-bezier(0.47,0,0.745,0.715) 1.1s both;animation:animate-svg-stroke-4 1s cubic-bezier(0.47,0,0.745,0.715) 0.36s both,animate-svg-fill-4 0.7s cubic-bezier(0.47,0,0.745,0.715) 1.1s both}@-webkit-keyframes animate-svg-stroke-5{0%{stroke-dashoffset:474.4093322753906px;stroke-dasharray:474.4093322753906px}100%{stroke-dashoffset:0;stroke-dasharray:474.4093322753906px}}@keyframes animate-svg-stroke-5{0%{stroke-dashoffset:474.4093322753906px;stroke-dasharray:474.4093322753906px}100%{stroke-dashoffset:0;stroke-dasharray:474.4093322753906px}}@-webkit-keyframes animate-svg-fill-5{0%{fill:transparent}100%{fill:rgb(255,255,255)}}@keyframes animate-svg-fill-5{0%{fill:transparent}100%{fill:rgb(255,255,255)}}.svg-elem-5{-webkit-animation:animate-svg-stroke-5 1s cubic-bezier(0.47,0,0.745,0.715) 0.48s both,animate-svg-fill-5 0.7s cubic-bezier(0.47,0,0.745,0.715) 1.2000000000000002s both;animation:animate-svg-stroke-5 1s cubic-bezier(0.47,0,0.745,0.715) 0.48s both,animate-svg-fill-5 0.7s cubic-bezier(0.47,0,0.745,0.715) 1.2000000000000002s both}@-webkit-keyframes animate-svg-stroke-6{0%{stroke-dashoffset:421.753173828125px;stroke-dasharray:421.753173828125px}100%{stroke-dashoffset:0;stroke-dasharray:421.753173828125px}}@keyframes animate-svg-stroke-6{0%{stroke-dashoffset:421.753173828125px;stroke-dasharray:421.753173828125px}100%{stroke-dashoffset:0;stroke-dasharray:421.753173828125px}}@-webkit-keyframes animate-svg-fill-6{0%{fill:transparent}100%{fill:rgb(255,255,255)}}@keyframes animate-svg-fill-6{0%{fill:transparent}100%{fill:rgb(255,255,255)}}.svg-elem-6{-webkit-animation:animate-svg-stroke-6 1s cubic-bezier(0.47,0,0.745,0.715) 0.6s both,animate-svg-fill-6 0.7s cubic-bezier(0.47,0,0.745,0.715) 1.3s both;animation:animate-svg-stroke-6 1s cubic-bezier(0.47,0,0.745,0.715) 0.6s both,animate-svg-fill-6 0.7s cubic-bezier(0.47,0,0.745,0.715) 1.3s both}@-webkit-keyframes animate-svg-stroke-7{0%{stroke-dashoffset:429.1596374511719px;stroke-dasharray:429.1596374511719px}100%{stroke-dashoffset:0;stroke-dasharray:429.1596374511719px}}@keyframes animate-svg-stroke-7{0%{stroke-dashoffset:429.1596374511719px;stroke-dasharray:429.1596374511719px}100%{stroke-dashoffset:0;stroke-dasharray:429.1596374511719px}}@-webkit-keyframes animate-svg-fill-7{0%{fill:transparent}100%{fill:rgb(255,255,255)}}@keyframes animate-svg-fill-7{0%{fill:transparent}100%{fill:rgb(255,255,255)}}.svg-elem-7{-webkit-animation:animate-svg-stroke-7 1s cubic-bezier(0.47,0,0.745,0.715) 0.72s both,animate-svg-fill-7 0.7s cubic-bezier(0.47,0,0.745,0.715) 1.4000000000000001s both;animation:animate-svg-stroke-7 1s cubic-bezier(0.47,0,0.745,0.715) 0.72s both,animate-svg-fill-7 0.7s cubic-bezier(0.47,0,0.745,0.715) 1.4000000000000001s both}@-webkit-keyframes animate-svg-stroke-8{0%{stroke-dashoffset:474.4094543457031px;stroke-dasharray:474.4094543457031px}100%{stroke-dashoffset:0;stroke-dasharray:474.4094543457031px}}@keyframes animate-svg-stroke-8{0%{stroke-dashoffset:474.4094543457031px;stroke-dasharray:474.4094543457031px}100%{stroke-dashoffset:0;stroke-dasharray:474.4094543457031px}}@-webkit-keyframes animate-svg-fill-8{0%{fill:transparent}100%{fill:rgb(255,255,255)}}@keyframes animate-svg-fill-8{0%{fill:transparent}100%{fill:rgb(255,255,255)}}.svg-elem-8{-webkit-animation:animate-svg-stroke-8 1s cubic-bezier(0.47,0,0.745,0.715) 0.84s both,animate-svg-fill-8 0.7s cubic-bezier(0.47,0,0.745,0.715) 1.5s both;animation:animate-svg-stroke-8 1s cubic-bezier(0.47,0,0.745,0.715) 0.84s both,animate-svg-fill-8 0.7s cubic-bezier(0.47,0,0.745,0.715) 1.5s both}@-webkit-keyframes animate-svg-stroke-9{0%{stroke-dashoffset:319.8328857421875px;stroke-dasharray:319.8328857421875px}100%{stroke-dashoffset:0;stroke-dasharray:319.8328857421875px}}@keyframes animate-svg-stroke-9{0%{stroke-dashoffset:319.8328857421875px;stroke-dasharray:319.8328857421875px}100%{stroke-dashoffset:0;stroke-dasharray:319.8328857421875px}}@-webkit-keyframes animate-svg-fill-9{0%{fill:transparent}100%{fill:rgb(251,202,202)}}@keyframes animate-svg-fill-9{0%{fill:transparent}100%{fill:rgb(251,202,202)}}.svg-elem-9{-webkit-animation:animate-svg-stroke-9 1s cubic-bezier(0.47,0,0.745,0.715) 0.96s both,animate-svg-fill-9 0.7s cubic-bezier(0.47,0,0.745,0.715) 1.6s both;animation:animate-svg-stroke-9 1s cubic-bezier(0.47,0,0.745,0.715) 0.96s both,animate-svg-fill-9 0.7s cubic-bezier(0.47,0,0.745,0.715) 1.6s both}@-webkit-keyframes animate-svg-stroke-10{0%{stroke-dashoffset:474.4094543457031px;stroke-dasharray:474.4094543457031px}100%{stroke-dashoffset:0;stroke-dasharray:474.4094543457031px}}@keyframes animate-svg-stroke-10{0%{stroke-dashoffset:474.4094543457031px;stroke-dasharray:474.4094543457031px}100%{stroke-dashoffset:0;stroke-dasharray:474.4094543457031px}}@-webkit-keyframes animate-svg-fill-10{0%{fill:transparent}100%{fill:rgb(255,255,255)}}@keyframes animate-svg-fill-10{0%{fill:transparent}100%{fill:rgb(255,255,255)}}.svg-elem-10{-webkit-animation:animate-svg-stroke-10 1s cubic-bezier(0.47,0,0.745,0.715) 1.08s both,animate-svg-fill-10 0.7s cubic-bezier(0.47,0,0.745,0.715) 1.7000000000000002s both;animation:animate-svg-stroke-10 1s cubic-bezier(0.47,0,0.745,0.715) 1.08s both,animate-svg-fill-10 0.7s cubic-bezier(0.47,0,0.745,0.715) 1.7000000000000002s both}@-webkit-keyframes animate-svg-stroke-11{0%{stroke-dashoffset:392.84979248046875px;stroke-dasharray:392.84979248046875px}100%{stroke-dashoffset:0;stroke-dasharray:392.84979248046875px}}@keyframes animate-svg-stroke-11{0%{stroke-dashoffset:392.84979248046875px;stroke-dasharray:392.84979248046875px}100%{stroke-dashoffset:0;stroke-dasharray:392.84979248046875px}}@-webkit-keyframes animate-svg-fill-11{0%{fill:transparent}100%{fill:rgb(255,255,255)}}@keyframes animate-svg-fill-11{0%{fill:transparent}100%{fill:rgb(255,255,255)}}.svg-elem-11{-webkit-animation:animate-svg-stroke-11 1s cubic-bezier(0.47,0,0.745,0.715) 1.2s both,animate-svg-fill-11 0.7s cubic-bezier(0.47,0,0.745,0.715) 1.8s both;animation:animate-svg-stroke-11 1s cubic-bezier(0.47,0,0.745,0.715) 1.2s both,animate-svg-fill-11 0.7s cubic-bezier(0.47,0,0.745,0.715) 1.8s both}@-webkit-keyframes animate-svg-stroke-12{0%{stroke-dashoffset:289.2278137207031px;stroke-dasharray:289.2278137207031px}100%{stroke-dashoffset:0;stroke-dasharray:289.2278137207031px}}@keyframes animate-svg-stroke-12{0%{stroke-dashoffset:289.2278137207031px;stroke-dasharray:289.2278137207031px}100%{stroke-dashoffset:0;stroke-dasharray:289.2278137207031px}}@-webkit-keyframes animate-svg-fill-12{0%{fill:transparent}100%{fill:rgb(255,255,255)}}@keyframes animate-svg-fill-12{0%{fill:transparent}100%{fill:rgb(255,255,255)}}.svg-elem-12{-webkit-animation:animate-svg-stroke-12 1s cubic-bezier(0.47,0,0.745,0.715) 1.3199999999999998s both,animate-svg-fill-12 0.7s cubic-bezier(0.47,0,0.745,0.715) 1.9000000000000001s both;animation:animate-svg-stroke-12 1s cubic-bezier(0.47,0,0.745,0.715) 1.3199999999999998s both,animate-svg-fill-12 0.7s cubic-bezier(0.47,0,0.745,0.715) 1.9000000000000001s both}@-webkit-keyframes animate-svg-stroke-13{0%{stroke-dashoffset:474.409423828125px;stroke-dasharray:474.409423828125px}100%{stroke-dashoffset:0;stroke-dasharray:474.409423828125px}}@keyframes animate-svg-stroke-13{0%{stroke-dashoffset:474.409423828125px;stroke-dasharray:474.409423828125px}100%{stroke-dashoffset:0;stroke-dasharray:474.409423828125px}}@-webkit-keyframes animate-svg-fill-13{0%{fill:transparent}100%{fill:rgb(255,255,255)}}@keyframes animate-svg-fill-13{0%{fill:transparent}100%{fill:rgb(255,255,255)}}.svg-elem-13{-webkit-animation:animate-svg-stroke-13 1s cubic-bezier(0.47,0,0.745,0.715) 1.44s both,animate-svg-fill-13 0.7s cubic-bezier(0.47,0,0.745,0.715) 2s both;animation:animate-svg-stroke-13 1s cubic-bezier(0.47,0,0.745,0.715) 1.44s both,animate-svg-fill-13 0.7s cubic-bezier(0.47,0,0.745,0.715) 2s both}@-webkit-keyframes animate-svg-stroke-14{0%{stroke-dashoffset:474.4096984863281px;stroke-dasharray:474.4096984863281px}100%{stroke-dashoffset:0;stroke-dasharray:474.4096984863281px}}@keyframes animate-svg-stroke-14{0%{stroke-dashoffset:474.4096984863281px;stroke-dasharray:474.4096984863281px}100%{stroke-dashoffset:0;stroke-dasharray:474.4096984863281px}}@-webkit-keyframes animate-svg-fill-14{0%{fill:transparent}100%{fill:rgb(255,255,255)}}@keyframes animate-svg-fill-14{0%{fill:transparent}100%{fill:rgb(255,255,255)}}.svg-elem-14{-webkit-animation:animate-svg-stroke-14 1s cubic-bezier(0.47,0,0.745,0.715) 1.56s both,animate-svg-fill-14 0.7s cubic-bezier(0.47,0,0.745,0.715) 2.1s both;animation:animate-svg-stroke-14 1s cubic-bezier(0.47,0,0.745,0.715) 1.56s both,animate-svg-fill-14 0.7s cubic-bezier(0.47,0,0.745,0.715) 2.1s both}@-webkit-keyframes animate-svg-stroke-15{0%{stroke-dashoffset:392.8497619628906px;stroke-dasharray:392.8497619628906px}100%{stroke-dashoffset:0;stroke-dasharray:392.8497619628906px}}@keyframes animate-svg-stroke-15{0%{stroke-dashoffset:392.8497619628906px;stroke-dasharray:392.8497619628906px}100%{stroke-dashoffset:0;stroke-dasharray:392.8497619628906px}}@-webkit-keyframes animate-svg-fill-15{0%{fill:transparent}100%{fill:rgb(255,255,255)}}@keyframes animate-svg-fill-15{0%{fill:transparent}100%{fill:rgb(255,255,255)}}.svg-elem-15{-webkit-animation:animate-svg-stroke-15 1s cubic-bezier(0.47,0,0.745,0.715) 1.68s both,animate-svg-fill-15 0.7s cubic-bezier(0.47,0,0.745,0.715) 2.2s both;animation:animate-svg-stroke-15 1s cubic-bezier(0.47,0,0.745,0.715) 1.68s both,animate-svg-fill-15 0.7s cubic-bezier(0.47,0,0.745,0.715) 2.2s both}</style>
    <title>seventeen logo final@2x</title>
    <g id="seventeen-logo-final" stroke="none" stroke-width="1" fill="none" fill-rule="evenodd">
        <g id="Group" transform="translate(3, 2)" fill-rule="nonzero">
            <g id="number" transform="translate(115.2782, 0)" fill="#FFFFFF" stroke="#6A6A6A" stroke-width="5">
                <path d="M1.68827572e-06,73.5069739 L15.5255778,73.5069739 L15.5255778,48.9270396 L1.68827572e-06,33.4081456 L1.68827572e-06,73.5069739 Z M43.7045002,0.397755464 L43.7045002,39.8401271 L3.85551867,5.68434189e-14 L0.0032347363,5.68434189e-14 L0.0032347363,1.8788241 L0,8.85408007 L0,18.1059139 L15.5255761,33.6248079 L26.1541278,44.2509979 L44.55517,62.6447191 L55.5168742,73.6039876 L59.2300746,73.6039876 L59.2300746,0.397755464 L43.7045002,0.397755464 Z" id="Shape" class="svg-elem-1"></path>
                <path d="M117.513537,0 L117.513537,40.0535554 C117.513537,49.4476759 110.00304,57.3089868 100.775026,57.5806241 C100.568018,57.5870921 100.36101,57.5903261 100.150768,57.5903261 C99.9340555,57.5903261 99.7141103,57.5870921 99.4973982,57.5806241 C90.2661479,57.2960524 82.7556507,49.4315092 82.7556507,40.0503231 L82.7556507,0 L67.2300746,0 L67.2300746,45.6641589 C67.2300746,51.5658004 69.3842486,57.1408314 73.2947527,61.3673784 C74.7567438,62.9486948 76.3707574,64.410361 78.088274,65.7071059 C84.4796369,70.5480689 92.1098109,73.1059861 100.150766,73.1059861 C108.175549,73.1059861 115.792786,70.554537 122.180914,65.7297423 C123.885493,64.4426995 125.489803,62.9972017 126.945326,61.4320537 C130.875238,57.2087424 133.039117,51.6207753 133.039117,45.6964974 L133.039117,0 L117.513537,0 Z" id="Path" class="svg-elem-2"></path>
                <path d="M141.039117,73.6030238 L156.564693,73.6030238 L156.564693,48.8837128 L141.039117,33.3913358 L141.039117,73.6030238 Z M203.474577,5.68434189e-14 L174.186223,29.2818515 L159.669808,14.7654287 L144.901103,5.68434189e-14 L141.039117,5.68434189e-14 L141.039117,18.0962169 L156.564693,33.6183432 L163.73557,40.784391 L174.182988,51.2294879 L176.240127,49.1760404 L179.080012,46.340018 L179.93392,45.4862998 L183.10696,42.3171989 L191.341984,34.0840046 L191.341984,73.6039859 L206.86756,73.6039859 L206.86756,5.68434189e-14 L203.474577,5.68434189e-14 Z" id="Shape" class="svg-elem-3"></path>
                <path d="M230.393459,44.6131758 L259.992002,44.6131758 C263.001699,45.3048808 265.160077,47.9976461 265.160077,51.1098326 C265.160077,54.1460248 263.071239,56.8193876 260.154372,57.5709169 L230.393459,57.5709169 L230.393459,44.6131758 Z M277.891697,40.2799164 C276.669058,38.0938842 275.097093,36.1439168 273.22432,34.4817567 C272.959092,34.248926 272.690629,34.0225617 272.412462,33.7994313 C272.522435,33.6215739 272.629174,33.4404824 272.735912,33.2593909 L272.739147,33.2496889 L272.745617,33.2399868 L272.758554,33.2141164 C272.794133,33.1591431 272.826478,33.1009342 272.855589,33.0427269 C274.699252,29.7475095 275.672835,26.0027957 275.672835,22.2095767 C275.672835,18.4519285 274.715426,14.7363191 272.904109,11.4637381 C272.845887,11.35379 272.784432,11.2470741 272.722977,11.14036 C268.76072,4.26858414 261.382837,1.13686838e-13 253.455089,1.13686838e-13 L214.86756,1.13686838e-13 L214.86756,15.7937652 L230.393138,15.7937652 L230.393138,15.7711288 L255.188778,15.7711288 C258.067479,16.5440016 260.124618,19.2054005 260.124618,22.2095783 C260.124618,25.4077837 257.889582,28.1241559 254.777997,28.748274 L214.86756,28.748274 L214.86756,73.32265 L253.455088,73.32265 C254.286352,73.32265 255.133791,73.2741432 255.971525,73.1803634 C256.812494,73.2741432 257.656698,73.32265 258.491197,73.32265 C266.554794,73.32265 273.997367,68.9441161 277.917573,61.8944828 C279.741828,58.6186677 280.708943,54.88689 280.708943,51.1098394 C280.708943,47.3166204 279.73536,43.5719065 277.891697,40.2799214 L277.891697,40.2799164 Z" id="Shape" class="svg-elem-4"></path>
                <path d="M288.712178,0 L288.708943,2.91039805 L288.708943,15.5221263 L354.023104,15.5221263 L354.023104,0 L288.712178,0 Z M304.237754,41.8644702 L347.50883,41.8644702 L347.50883,26.3423439 L304.237754,26.3423439 L288.712178,26.2453301 L288.712178,57.5579876 L288.708943,60.4683857 L288.708943,73.0801139 L354.023104,73.0801139 L354.023104,57.5579876 L304.237756,57.5579876 L304.237754,41.8644702 Z" id="Shape" class="svg-elem-5"></path>
                <path d="M430.018668,68.8470989 L409.094718,34.546432 C409.220863,34.4526522 409.343775,34.3588742 409.463451,34.2650944 L409.544313,34.2036531 C409.631644,34.1389779 409.718975,34.0710685 409.803072,34.0031592 C409.958327,33.880275 410.113583,33.7541585 410.265604,33.6280419 C410.475846,33.4566525 410.679619,33.2884954 410.880158,33.1203383 C410.906034,33.0944678 410.935145,33.0718314 410.961021,33.049195 C411.119511,32.9133764 411.278002,32.7710897 411.436492,32.6320371 C411.892556,32.2278153 412.355088,31.797723 412.837026,31.3223579 C417.869901,26.3585106 421.334046,20.1043865 422.857492,13.2423127 C423.433231,10.6585251 423.72757,7.98095778 423.72757,5.28722372 C423.72757,4.43997357 423.698459,3.57008868 423.637004,2.70667014 L423.446168,0 L362.023104,0 L362.023104,15.518894 L395.283418,15.518894 L395.283418,15.522128 L405.546471,15.522128 C404.579357,17.2586671 403.356718,18.86262 401.930306,20.272547 C400.054299,22.1255006 397.893656,23.5871669 395.506599,24.6219748 C395.432207,24.6543133 395.357813,24.6866501 395.283421,24.7157546 C392.715231,25.7926031 389.978848,26.3391116 387.142196,26.3391116 L362.023104,26.3391116 L362.023104,73.2741432 L377.548682,73.2741432 L377.548682,41.8612379 L387.142196,41.8612379 C387.384782,41.8612379 387.624136,41.8580038 387.866723,41.8547698 L387.886129,41.8547698 L387.91524,41.8515358 L388.096372,41.8483018 L388.271034,41.8418338 L388.293676,41.8418338 C388.484512,41.8353657 388.672113,41.8288994 388.859714,41.8191973 C388.947045,41.8191973 389.021437,41.8127293 389.076425,41.8094953 C389.315776,41.7965609 389.555128,41.7836248 389.791247,41.7674564 L389.949738,41.7674564 L390.069414,41.74482 C390.312001,41.7254176 390.567527,41.7027811 390.848928,41.6736767 C391.091515,41.6510402 391.337336,41.6219358 391.583158,41.5928313 C391.689896,41.5798969 391.796633,41.5669608 391.900138,41.5507924 C392.136257,41.524922 392.36914,41.4893512 392.602022,41.4537803 L392.631133,41.4505463 C392.718464,41.4376119 392.80903,41.4246759 392.896361,41.4085075 C393.100134,41.379403 393.284501,41.3470645 393.449461,41.31796 C393.915229,41.2371164 394.397167,41.1465706 394.872638,41.0430888 L413.681228,71.8771472 L414.5319,73.2741432 L432.716232,73.2741432 L430.018668,68.8470989 Z" id="Path" class="svg-elem-6"></path>
            </g>
            <g id="SEVENTEEN" transform="translate(0, 84.396)">
                <path d="M43.1513992,28.7935435 L22.1627603,28.7935435 C18.5013123,28.7935435 15.5255761,25.8152362 15.5255761,22.1578358 C15.5255761,18.5004354 18.5013123,15.522128 22.1627603,15.522128 L46.4602879,15.522128 C48.8020631,16.3241053 50.4904688,18.5489439 50.4904688,21.1618343 L65.6925949,21.1618343 C65.6925949,19.2086329 65.4273668,17.3168744 64.9324893,15.522128 C62.4645695,6.57426817 54.2651241,5.68434189e-14 44.5292938,5.68434189e-14 L22.1627603,5.68434189e-14 C14.2317778,5.68434189e-14 6.85712941,4.2782862 2.91104488,11.1662304 C1.00592702,14.4970204 0,18.2967074 0,22.1578358 C0,26.0189641 1.00592871,29.8186511 2.91104488,33.1494411 C3.76818585,34.6466798 4.78705181,36.017802 5.93853352,37.2498698 C10.0851565,41.6930791 15.9525309,44.3156715 22.162762,44.3156715 L43.1514008,44.3156715 C46.8096141,44.3156715 49.7885834,47.2939789 49.7885834,50.9513793 C49.7885834,54.6087797 46.8096141,57.587087 43.1514008,57.587087 L19.2323087,57.587087 C16.8905335,56.7851097 15.2021278,54.5602711 15.2021278,51.9473807 L0,51.9473807 C0,53.9005821 0.265229806,55.7923406 0.760107318,57.587087 C3.22802709,66.5349468 11.4274725,73.109215 21.1633028,73.109215 L43.1514008,73.109215 C51.0791486,73.109215 58.4537987,68.8309288 62.3998815,61.9429846 C64.3049994,58.6121946 65.3141612,54.8125076 65.3141612,50.9513793 C65.3141612,47.0902509 64.3049994,43.2905639 62.3998815,39.959774 C58.453797,33.0718297 51.0791486,28.7935435 43.1514008,28.7935435 L43.1513992,28.7935435 Z" id="Path" stroke="#444444" stroke-width="5" fill="#FFFFFF" class="svg-elem-7"></path>
                <path d="M73.6958297,0 L73.6925949,2.91039805 L73.6925949,15.5221263 L139.006756,15.5221263 L139.006756,0 L73.6958297,0 Z M89.2214058,41.8644702 L132.492482,41.8644702 L132.492482,26.3423439 L89.2214058,26.3423439 L73.6958297,26.2453301 L73.6958297,57.5579876 L73.6925949,60.4683857 L73.6925949,73.0801139 L139.006756,73.0801139 L139.006756,57.5579876 L89.2214074,57.5579876 L89.2214058,41.8644702 Z" id="Shape" stroke="#444444" stroke-width="5" fill="#FFFFFF" class="svg-elem-8"></path>
                <path d="M166.478417,0.234950123 L147.006756,0.234950123 L173.070318,47.3122684 L182.841372,29.6590865 L166.478417,0.234950123 Z M211.583451,0.234951811 L179.238499,58.4558624 L187.065977,73.3247661 L191.248179,73.3247661 L231.198257,0 L211.583451,0.234951811 Z" id="Shape" stroke="#F14949" stroke-width="4" fill="#FBCACA" class="svg-elem-9"></path>
                <path d="M239.201491,0 L239.198257,2.91039805 L239.198257,15.5221263 L304.512418,15.5221263 L304.512418,0 L239.201491,0 Z M254.727067,41.8644702 L297.998143,41.8644702 L297.998143,26.3423439 L254.727067,26.3423439 L239.201491,26.2453301 L239.201491,57.5579876 L239.198257,60.4683857 L239.198257,73.0801139 L304.512418,73.0801139 L304.512418,57.5579876 L254.727069,57.5579876 L254.727067,41.8644702 Z" id="Shape" stroke="#444444" stroke-width="5" fill="#FFFFFF" class="svg-elem-10"></path>
                <path d="M312.512419,73.5069739 L328.037995,73.5069739 L328.037995,48.9270396 L312.512419,33.4081456 L312.512419,73.5069739 Z M356.216918,0.397755464 L356.216918,39.8401271 L316.367936,1.13686838e-13 L312.515652,1.13686838e-13 L312.515652,1.8788241 L312.512418,8.85408007 L312.512418,18.1059139 L328.037994,33.6248079 L338.666545,44.2509979 L357.067588,62.6447191 L368.029292,73.6039876 L371.742492,73.6039876 L371.742492,0.397755464 L356.216918,0.397755464 Z" id="Shape" stroke="#444444" stroke-width="5" fill="#FFFFFF" class="svg-elem-11"></path>
                <path d="M419.905218,73.0704136 L419.905218,26.3455779 L404.379642,26.3455779 L404.379642,73.0704136 L419.905218,73.0704136 Z M379.742492,5.68434189e-14 L379.742492,15.5221263 L404.379642,15.5221263 L404.379642,15.5253603 L419.905218,15.5253603 L419.905218,15.5221263 L445.58064,15.5221263 L445.58064,5.68434189e-14 L379.742492,5.68434189e-14 Z" id="Shape" stroke="#444444" stroke-width="5" fill="#FFFFFF" class="svg-elem-12"></path>
                <path d="M453.583875,0 L453.58064,2.91039805 L453.58064,15.5221263 L518.894801,15.5221263 L518.894801,0 L453.583875,0 Z M469.109451,41.8644702 L512.380527,41.8644702 L512.380527,26.3423439 L469.109451,26.3423439 L453.583875,26.2453301 L453.583875,57.5579876 L453.58064,60.4683857 L453.58064,73.0801139 L518.894801,73.0801139 L518.894801,57.5579876 L469.109453,57.5579876 L469.109451,41.8644702 Z" id="Shape" stroke="#444444" stroke-width="5" fill="#FFFFFF" class="svg-elem-13"></path>
                <path d="M526.898036,0 L526.894801,2.91039805 L526.894801,15.5221263 L592.208963,15.5221263 L592.208963,0 L526.898036,0 Z M542.423612,41.8644702 L585.694688,41.8644702 L585.694688,26.3423439 L542.423612,26.3423439 L526.898036,26.2453301 L526.898036,57.5579876 L526.894801,60.4683857 L526.894801,73.0801139 L592.208963,73.0801139 L592.208963,57.5579876 L542.423614,57.5579876 L542.423612,41.8644702 Z" id="Shape" stroke="#444444" stroke-width="5" fill="#FFFFFF" class="svg-elem-14"></path>
                <path d="M600.208964,73.5069739 L615.73454,73.5069739 L615.73454,48.9270396 L600.208964,33.4081456 L600.208964,73.5069739 Z M643.913463,0.397755464 L643.913463,39.8401271 L604.064481,1.13686838e-13 L600.212197,1.13686838e-13 L600.212197,1.8788241 L600.208963,8.85408007 L600.208963,18.1059139 L615.734539,33.6248079 L626.36309,44.2509979 L644.764133,62.6447191 L655.725837,73.6039876 L659.439037,73.6039876 L659.439037,0.397755464 L643.913463,0.397755464 Z" id="Shape" stroke="#444444" stroke-width="5" fill="#FFFFFF" class="svg-elem-15"></path>
            </g>
        </g>
    </g>
</svg>